<?xml version="1.0" encoding="utf-8"?>
<!-- Generator: Adobe Illustrator 17.0.0, SVG Export Plug-In . SVG Version: 6.00 Build 0)  -->
<!DOCTYPE svg PUBLIC "-//W3C//DTD SVG 1.1//EN" "http://www.w3.org/Graphics/SVG/1.1/DTD/svg11.dtd">
<svg version="1.1"
	 id="svg8" xmlns:dc="http://purl.org/dc/elements/1.1/" xmlns:cc="http://creativecommons.org/ns#" xmlns:rdf="http://www.w3.org/1999/02/22-rdf-syntax-ns#" xmlns:svg="http://www.w3.org/2000/svg"
	 xmlns="http://www.w3.org/2000/svg" xmlns:xlink="http://www.w3.org/1999/xlink" x="0px" y="0px" width="253px" height="253px"
	 viewBox="-1.209 -0.124 253 253" enable-background="new -1.209 -0.124 253 253" xml:space="preserve">
<path id="rect4496" fill="#FFFFFF" d="M-1.209,0v30.302v31.172h30.3V30.302h31.172V0H29.091H-1.209z"/>
<path id="rect4498" fill="#FFFFFF" d="M84.442,0h52.165v30.301H84.442V0z"/>
<path id="path4508" fill="#FFFFFF" d="M220.982,0.001H190.68h-31.172v30.3h31.172v31.172h30.302V30.301V0.001z"/>
<path id="path4510" fill="#FFFFFF" d="M220.981,84.442v52.165H190.68V84.442H220.981z"/>
<path id="path4514" fill="#FFFFFF" d="M-1.209,221.638h30.302h31.172v-30.3H29.092v-31.172H-1.209v31.172V221.638z"/>
<path id="path4516" fill="#FFFFFF" d="M-1.209,137.197V85.031h30.301v52.165H-1.209z"/>
<path id="path4520" fill="#FFFFFF" d="M191.958,160.165v31.172h-31.172v30.302h31.172v31.113h30.302v-31.113h29.531v-30.302h-29.533
	v-31.172H191.958z"/>
<path id="path4522" fill="#FFFFFF" d="M136.607,221.638H84.442v-30.301h52.165V221.638z"/>
</svg>
