<?xml version="1.0" encoding="UTF-8" standalone="no"?>
<svg xmlns:dc="http://purl.org/dc/elements/1.1/" xmlns:cc="http://creativecommons.org/ns#" xmlns:rdf="http://www.w3.org/1999/02/22-rdf-syntax-ns#" xmlns:svg="http://www.w3.org/2000/svg" xmlns="http://www.w3.org/2000/svg" id="svg8" version="1.1" viewBox="0 0 88.399467 89.1651" height="89.1651mm" width="88.399467mm">
  <defs id="defs2"/>
  <metadata id="metadata5">
    <rdf:RDF>
      <cc:Work rdf:about="">
        <dc:format>image/svg+xml</dc:format>
        <dc:type rdf:resource="http://purl.org/dc/dcmitype/StillImage"/>
        <dc:title/>
      </cc:Work>
    </rdf:RDF>
  </metadata>
  <g transform="translate(-55.420689,-157.31901)" id="layer1">
    <path id="rect4496" d="m 55.420905,157.31901 v 10.68979 10.99674 h 10.68927 V 168.0088 H 77.106919 V 157.31901 H 66.110175 Z" style="fill:#00a8ec;fill-opacity:1;stroke:none;stroke-width:0.26798108;stroke-opacity:1"/>
    <path id="rect4498" d="m 85.209999,157.31919 h 18.402711 v 10.68964 H 85.209999 Z" style="fill:#00a8ec;fill-opacity:1;stroke:none;stroke-width:0.24686049;stroke-opacity:1"/>
    <path style="fill:#00a8ec;fill-opacity:1;stroke:none;stroke-width:0.26798108;stroke-opacity:1" d="m 132.95141,157.31921 h -10.68979 -10.99674 v 10.68927 h 10.99674 v 10.99674 h 10.68979 v -10.99674 z" id="path4508"/>
    <path style="fill:#00a8ec;fill-opacity:1;stroke:none;stroke-width:0.24686049;stroke-opacity:1" d="m 132.95123,187.1083 v 18.40271 H 122.26159 V 187.1083 Z" id="path4510"/>
    <path id="path4514" d="M 55.420689,235.508 H 66.110474 77.107219 V 224.81873 H 66.110474 V 213.82198 H 55.420689 v 10.99675 z" style="fill:#00a8ec;fill-opacity:1;stroke:none;stroke-width:0.26798108;stroke-opacity:1"/>
    <path id="path4516" d="m 55.420866,205.7189 v -18.40271 h 10.68964 v 18.40271 z" style="fill:#00a8ec;fill-opacity:1;stroke:none;stroke-width:0.24686049;stroke-opacity:1"/>
    <path id="path4520" d="m 122.7124,213.8215 v 10.99675 h -10.99674 v 10.68979 h 10.99674 v 10.97607 h 10.68979 v -10.97607 h 10.41797 V 224.81825 H 133.40167 V 213.8215 Z" style="fill:#00a8ec;fill-opacity:1;stroke:none;stroke-width:0.26798108;stroke-opacity:1"/>
    <path style="fill:#00a8ec;fill-opacity:1;stroke:none;stroke-width:0.24686049;stroke-opacity:1" d="M 103.61271,235.50799 H 85.21 v -10.68964 h 18.40271 z" id="path4522"/>
  </g>
</svg>